<?xml version="1.0" encoding="UTF-8"?>
<svg id="Capa_2" data-name="Capa 2" xmlns="http://www.w3.org/2000/svg" xmlns:xlink="http://www.w3.org/1999/xlink" viewBox="0 0 441.65 40.48">
  <defs>
    <style>
      .cls-1 {
        font-family: Montserrat-Regular, Montserrat;
        font-size: 29.74px;
      }

      .cls-1, .cls-2 {
        fill: #606060;
      }

      .cls-3 {
        fill: none;
        stroke: #606060;
        stroke-miterlimit: 10;
      }

      .cls-4 {
        clip-path: url(#clippath);
      }

      .cls-5 {
        fill: #e0007e;
      }
    </style>
    <clipPath id="clippath">
      <path class="cls-2" d="M58.79,0h13.93c7.56,0,13.75,6.19,13.75,13.75s-6.19,13.75-13.75,13.75h-2.3l6.72,12.96h-11.22l-6.72-12.96h-14.68l5.01-9.66h23.18c2.25,0,4.09-1.84,4.09-4.09s-1.84-4.09-4.09-4.09h-18.94L58.79,0Z"/>
    </clipPath>
  </defs>
  <g id="Layer_1" data-name="Layer 1">
    <g>
      <g>
        <path class="cls-2" d="M58.79,0h13.93c7.56,0,13.75,6.19,13.75,13.75s-6.19,13.75-13.75,13.75h-2.3l6.72,12.96h-11.22l-6.72-12.96h-14.68l5.01-9.66h23.18c2.25,0,4.09-1.84,4.09-4.09s-1.84-4.09-4.09-4.09h-18.94L58.79,0Z"/>
        <g class="cls-4">
          <rect class="cls-2" x="44.53" y="0" width="41.95" height="40.47"/>
        </g>
      </g>
      <polygon class="cls-5" points="11.22 0 0 0 20.98 40.47 32.2 40.47 53.18 0 41.97 0 26.59 29.65 11.22 0"/>
      <text class="cls-1" transform="translate(120.2 32.69) scale(1.03 1)"><tspan x="0" y="0">VERÓNICA REINOSO</tspan></text>
      <line class="cls-3" x1="103.72" x2="103.72" y2="40.47"/>
      <circle class="cls-5" cx="103.72" cy="20.23" r="3.39"/>
    </g>
  </g>
</svg>